HIERARCHY
ROOT Hips
{
	OFFSET 51.577801 3.599044 96.147003
	CHANNELS 6 Xposition Yposition Zposition Xrotation Yrotation Zrotation
	JOINT spine
	{
		OFFSET 0.000000 -0.467660 8.132492
		CHANNELS 3 Xrotation Yrotation Zrotation
		JOINT spine1
		{
			OFFSET 0.000000 -0.000002 10.349800
			CHANNELS 3 Xrotation Yrotation Zrotation
			JOINT spine2
			{
				OFFSET 0.000000 -0.000002 9.916992
				CHANNELS 3 Xrotation Yrotation Zrotation
				JOINT Neck
				{
					OFFSET 0.000000 -1.213904 25.461006
					CHANNELS 3 Xrotation Yrotation Zrotation
					JOINT Head
					{
						OFFSET 0.000000 -0.000001 7.692444
						CHANNELS 3 Xrotation Yrotation Zrotation
						End Site
						{
							OFFSET 0.000000 6.140627 18.619995
						}
					}
				}
				JOINT RightShoulder
				{
					OFFSET -4.175751 0.581443 10.709602
					CHANNELS 3 Xrotation Yrotation Zrotation
					JOINT RightArm
					{
						OFFSET 0.000000 -0.000002 14.046600
						CHANNELS 3 Xrotation Yrotation Zrotation
						JOINT RightArmRoll
						{
							OFFSET 0.000000 -0.000001 7.090988
							CHANNELS 3 Xrotation Yrotation Zrotation
							JOINT RightForeArm
							{
								OFFSET 0.000000 -0.000003 20.653503
								CHANNELS 3 Xrotation Yrotation Zrotation
								JOINT RightForeArmRoll
								{
									OFFSET 0.000000 -0.000001 7.957184
									CHANNELS 3 Xrotation Yrotation Zrotation
									JOINT RightHand
									{
										OFFSET 0.000000 -0.000003 15.968307
										CHANNELS 3 Xrotation Yrotation Zrotation
										End Site
										{
											OFFSET 0.000000 0.000000 0.100006
										}
									}
								}
							}
						}
					}
				}
				JOINT LeftShoulder
				{
					OFFSET 4.175751 0.581443 10.709602
					CHANNELS 3 Xrotation Yrotation Zrotation
					JOINT LeftArm
					{
						OFFSET 0.000000 -0.000002 14.046600
						CHANNELS 3 Xrotation Yrotation Zrotation
						JOINT LeftArmRoll
						{
							OFFSET 0.000000 -0.000001 7.090973
							CHANNELS 3 Xrotation Yrotation Zrotation
							JOINT LeftForeArm
							{
								OFFSET 0.000000 -0.000003 20.653503
								CHANNELS 3 Xrotation Yrotation Zrotation
								JOINT LeftForeArmRoll
								{
									OFFSET 0.000000 -0.000001 7.957184
									CHANNELS 3 Xrotation Yrotation Zrotation
									JOINT LeftHand
									{
										OFFSET 0.000000 -0.000003 15.968292
										CHANNELS 3 Xrotation Yrotation Zrotation
										End Site
										{
											OFFSET 0.000000 0.000000 0.100006
										}
									}
								}
							}
						}
					}
				}
			}
		}
	}
	JOINT RightUpLeg
	{
		OFFSET -7.208340 1.108840 -1.321823
		CHANNELS 3 Xrotation Yrotation Zrotation
		JOINT RightUpLegRoll
		{
			OFFSET 0.000000 -0.000003 18.723801
			CHANNELS 3 Xrotation Yrotation Zrotation
			JOINT RightLeg
			{
				OFFSET 0.000000 0.000004 -23.186600
				CHANNELS 3 Xrotation Yrotation Zrotation
				JOINT RightLegRoll
				{
					OFFSET 0.000000 -0.000004 23.262398
					CHANNELS 3 Xrotation Yrotation Zrotation
					JOINT RightFoot
					{
						OFFSET 0.000000 -0.000003 19.362099
						CHANNELS 3 Xrotation Yrotation Zrotation
						JOINT RightToeBase
						{
							OFFSET 0.000000 -0.000003 16.185699
							CHANNELS 3 Xrotation Yrotation Zrotation
							End Site
							{
								OFFSET 0.006859 0.903521 7.838623
							}
						}
					}
				}
			}
		}
	}
	JOINT LeftUpLeg
	{
		OFFSET 7.208340 1.108840 -1.321823
		CHANNELS 3 Xrotation Yrotation Zrotation
		JOINT LeftUpLegRoll
		{
			OFFSET 0.000000 -0.000003 18.723900
			CHANNELS 3 Xrotation Yrotation Zrotation
			JOINT LeftLeg
			{
				OFFSET 0.000000 -0.000004 23.186501
				CHANNELS 3 Xrotation Yrotation Zrotation
				JOINT LeftLegRoll
				{
					OFFSET 0.000000 -0.000004 23.477493
					CHANNELS 3 Xrotation Yrotation Zrotation
					JOINT LeftFoot
					{
						OFFSET 0.000000 -0.000003 19.147003
						CHANNELS 3 Xrotation Yrotation Zrotation
						JOINT LeftToeBase
						{
							OFFSET 0.000000 -0.000003 16.185699
							CHANNELS 3 Xrotation Yrotation Zrotation
							End Site
							{
								OFFSET -0.030746 0.903520 7.838623
							}
						}
					}
				}
			}
		}
	}
}
MOTION
Frames: 11
Frame Time: 0.041667
55.083302 -9.323973 84.739983 -5.152594 0.545501 1.674719 -0.362796 -0.683449 0.258188 3.280454 -1.365749 0.518720 4.925689 -1.359433 0.535045 1.271987 -4.451086 -5.894567 10.548121 12.183884 -7.771354 -26.598930 -17.848341 -34.407341 -137.512199 -193.690709 -57.496594 -0.000000 -0.000002 -0.000003 55.868663 7.333246 4.637085 -0.000003 0.000011 -3.000000 -5.000203 -7.999152 0.000123 -24.220920 22.729577 30.396251 -146.276465 193.576140 58.333237 -0.000003 0.000012 0.000004 41.915840 -8.779167 -1.705135 0.000002 -0.000000 3.003820 -5.000224 7.998931 -0.000138 -20.314653 -162.533422 -0.606321 -179.999991 0.000007 -0.984007 128.977003 9.450219 3.105994 0.000001 0.000002 3.939678 85.718007 5.137654 7.961904 25.635209 -7.348424 0.231099 -17.354280 164.315705 3.637526 -0.000008 -0.000004 -1.505470 -53.486385 -12.128786 -5.934446 -0.000002 0.000002 -6.065728 87.839211 -5.410087 -6.971406 26.946401 7.305621 -1.774101 
55.134102 -9.308895 84.505493 -5.098792 0.626391 1.711359 -0.356088 -0.692859 0.255848 3.293893 -1.384540 0.514148 4.939142 -1.378284 0.530699 0.954378 -4.802116 -5.917478 10.795664 12.538817 -7.828015 -26.765187 -18.089717 -34.648662 -137.788493 -194.281903 -57.442711 0.000002 -0.000001 0.000000 56.270701 7.186792 4.735171 -0.000001 0.000009 -3.000010 -5.000207 -7.999150 0.000123 -24.258605 22.490831 30.468122 -146.388412 193.805839 57.920974 -0.000006 0.000015 0.000005 42.404311 -8.568027 -1.830170 -0.000000 -0.000001 3.003798 -5.000224 7.998930 -0.000139 -20.598216 -162.563693 -0.673232 -179.999991 0.000005 -0.967000 128.480298 9.466512 3.101363 0.000004 0.000003 3.947089 85.879848 5.082380 8.218234 25.669046 -7.348316 0.272836 -17.700514 164.249124 3.713862 -0.000005 -0.000004 -1.510720 -54.033234 -12.163758 -6.036941 -0.000004 0.000003 -6.164968 88.093922 -5.393373 -7.065688 26.907517 7.307328 -1.727393 
55.147202 -9.265873 84.291389 -5.049490 0.703077 1.747942 -0.349687 -0.700656 0.253280 3.306718 -1.400116 0.509116 4.951970 -1.393919 0.525855 0.668035 -5.160219 -5.942254 11.011237 12.888167 -7.881380 -26.921973 -18.327913 -34.875315 -138.064460 -194.840025 -57.408717 -0.000002 0.000000 -0.000004 56.662621 7.042419 4.830656 -0.000004 0.000010 -3.000012 -5.000202 -7.999150 0.000126 -24.287154 22.241463 30.527500 -146.498624 194.015089 57.528143 -0.000003 0.000014 0.000005 42.871042 -8.365278 -1.953614 0.000004 -0.000000 3.003779 -5.000221 7.998932 -0.000139 -20.868776 -162.592954 -0.736417 -179.999991 0.000004 -0.952001 128.004425 9.483454 3.100595 0.000003 0.000001 3.957530 86.036567 5.033585 8.452887 25.699750 -7.348182 0.310728 -18.036426 164.188267 3.790040 -0.000007 -0.000004 -1.515630 -54.562235 -12.197657 -6.136238 -0.000002 0.000001 -6.258729 88.329195 -5.378642 -7.154388 26.874269 7.308746 -1.687270 
54.983299 -9.140009 84.187881 -5.005689 0.774589 1.784313 -0.343591 -0.706697 0.250496 3.318920 -1.412178 0.503651 4.964178 -1.406048 0.520534 0.418457 -5.522293 -5.967630 11.189348 13.227747 -7.929394 -27.066421 -18.557233 -35.082922 -138.339307 -195.357890 -57.393554 0.000002 0.000000 -0.000001 57.042151 6.901127 4.923405 -0.000004 0.000010 -3.000008 -5.000206 -7.999150 0.000123 -24.305486 21.981446 30.572576 -146.607074 194.202892 57.155402 -0.000004 0.000015 0.000006 43.310482 -8.173238 -2.073710 0.000001 -0.000000 3.003750 -5.000219 7.998931 -0.000139 -21.124792 -162.620042 -0.796109 -179.999991 0.000005 -0.938996 127.550395 9.500860 3.106666 -0.000002 0.000002 3.972791 86.191714 4.992615 8.661596 25.725192 -7.348046 0.342230 -18.360230 164.133872 3.865872 -0.000008 -0.000005 -1.520209 -55.072269 -12.230884 -6.232185 -0.000001 -0.000001 -6.346869 88.545090 -5.366173 -7.237280 26.846665 7.309928 -1.653727 
55.043598 -9.121115 83.950394 -4.968374 0.839952 1.820356 -0.337795 -0.710841 0.247512 3.330504 -1.420458 0.497779 4.975770 -1.414392 0.514761 0.211172 -5.885258 -5.992148 11.324056 13.553517 -7.969798 -27.195624 -18.772217 -35.267190 -138.612405 -195.828627 -57.397543 0.000001 -0.000002 -0.000004 57.407071 6.764085 5.012607 -0.000001 0.000008 -3.000009 -5.000205 -7.999152 0.000122 -24.312099 21.710907 30.601252 -146.713911 194.368291 56.806345 -0.000005 0.000015 0.000006 43.716950 -7.994029 -2.188692 0.000002 0.000000 3.003730 -5.000222 7.998932 -0.000138 -21.364509 -162.644699 -0.852173 -179.999991 0.000006 -0.928001 127.119137 9.519208 3.118373 0.000001 0.000000 3.994651 86.348891 4.960667 8.840307 25.743171 -7.347952 0.364775 -18.670226 164.085678 3.941524 -0.000009 -0.000004 -1.524459 -55.562366 -12.264016 -6.324774 -0.000003 0.000001 -6.429249 88.741643 -5.356144 -7.313862 26.824608 7.310920 -1.626779 
55.085300 -9.190023 83.907196 -4.938564 0.898189 1.855918 -0.332297 -0.712947 0.244339 3.341484 -1.424655 0.491525 4.986742 -1.418662 0.508558 0.051734 -6.246036 -6.014132 11.409642 13.861437 -8.000273 -27.306541 -18.967157 -35.423704 -138.883400 -196.245132 -57.423046 0.000001 -0.000002 -0.000001 57.755321 6.632235 5.097766 -0.000004 0.000008 -3.000013 -5.000203 -7.999151 0.000124 -24.305868 21.429993 30.611829 -146.818864 194.510277 56.484664 -0.000005 0.000014 0.000004 44.084841 -7.829772 -2.296587 0.000003 -0.000000 3.003708 -5.000223 7.998931 -0.000138 -21.586034 -162.668550 -0.903715 -179.999991 0.000003 -0.919995 126.711648 9.538972 3.141465 0.000002 0.000002 4.024877 86.511531 4.939238 8.984906 25.751862 -7.347924 0.375847 -18.964613 164.044355 4.016803 -0.000007 -0.000003 -1.528380 -56.031611 -12.297403 -6.413994 -0.000003 0.000000 -6.505718 88.918838 -5.348989 -7.384114 26.808185 7.311739 -1.606454 
55.075199 -9.122486 83.683388 -4.916683 0.949856 1.891877 -0.327077 -0.712260 0.240674 3.351885 -1.423272 0.484273 4.997143 -1.417364 0.501289 -0.053218 -6.625868 -6.033211 11.439311 14.167459 -8.019441 -27.401466 -19.162019 -35.554048 -139.155296 -196.617077 -57.483084 0.000002 0.000000 -0.000002 58.098006 6.497430 5.179127 -0.000003 0.000009 -3.000012 -5.000204 -7.999151 0.000124 -24.284849 21.125478 30.602143 -146.917219 194.622388 56.189272 -0.000007 0.000016 0.000005 44.427625 -7.670609 -2.399833 0.000005 -0.000001 3.003690 -5.000222 7.998930 -0.000138 -21.791073 -162.690789 -0.952180 -179.999991 0.000005 -0.913997 126.325442 9.559257 3.170458 0.000001 0.000000 4.062088 86.672867 4.925993 9.096858 25.754787 -7.347947 0.379987 -19.246466 164.010122 4.091299 -0.000009 -0.000005 -1.531820 -56.484005 -12.330120 -6.499001 -0.000000 -0.000000 -6.575628 89.071138 -5.343446 -7.447444 26.800042 7.312266 -1.595885 
55.112499 -9.077572 83.617989 -4.901903 0.996473 1.929067 -0.322125 -0.708392 0.236275 3.361737 -1.415531 0.475537 5.006988 -1.409732 0.492462 -0.105142 -7.043879 -6.049815 11.414522 14.487922 -8.027675 -27.485499 -19.378000 -35.664512 -139.429952 -196.960417 -57.588405 0.000001 0.000000 -0.000003 58.446059 6.352226 5.257635 -0.000004 0.000009 -3.000012 -5.000205 -7.999151 0.000126 -24.249625 20.787701 30.573464 -147.004304 194.701605 55.915279 -0.000003 0.000015 0.000006 44.761935 -7.506456 -2.502078 0.000002 -0.000000 3.003659 -5.000224 7.998930 -0.000138 -21.982544 -162.711690 -0.998500 -179.999991 0.000005 -0.911006 125.957158 9.579564 3.203872 0.000004 0.000002 4.103180 86.823616 4.917507 9.182235 25.757111 -7.347972 0.383497 -19.520291 163.982323 4.164766 -0.000007 -0.000004 -1.534659 -56.923281 -12.361271 -6.578994 -0.000003 -0.000000 -6.638658 89.194430 -5.338186 -7.503759 26.802267 7.312406 -1.597378 
55.134899 -9.056044 83.430893 -4.893295 1.038502 1.967294 -0.317447 -0.701747 0.231256 3.371011 -1.402240 0.465539 5.016264 -1.396562 0.482305 -0.110593 -7.493894 -6.063356 11.341834 14.819690 -8.025427 -27.559783 -19.611409 -35.756887 -139.705727 -197.277242 -57.734319 0.000002 0.000000 -0.000003 58.796673 6.198886 5.333617 -0.000003 0.000009 -3.000009 -5.000207 -7.999151 0.000126 -24.202451 20.421887 30.528490 -147.080132 194.751711 55.663187 -0.000004 0.000013 0.000005 45.086314 -7.339191 -2.603072 0.000003 0.000000 3.003639 -5.000223 7.998929 -0.000138 -22.161073 -162.732221 -1.042093 -179.999991 0.000004 -0.908998 125.607192 9.599584 3.240754 0.000001 0.000002 4.147421 86.963819 4.913056 9.243188 25.759036 -7.347991 0.386426 -19.786150 163.959019 4.237726 -0.000008 -0.000005 -1.536950 -57.348748 -12.390912 -6.654045 0.000000 0.000001 -6.695179 89.290899 -5.333143 -7.553232 26.813675 7.312179 -1.609638 
55.102901 -9.067902 83.364891 -4.889952 1.076409 2.006355 -0.313056 -0.692731 0.225725 3.379687 -1.384219 0.454500 5.024949 -1.378673 0.471051 -0.076118 -7.969781 -6.073295 11.227820 15.159489 -8.013218 -27.625679 -19.858727 -35.833645 -139.981230 -197.569697 -57.914882 -0.000000 0.000001 -0.000003 59.146932 6.039668 5.407239 -0.000000 0.000008 -3.000012 -5.000205 -7.999150 0.000123 -24.145620 20.033285 30.469914 -147.144951 194.776614 55.430554 -0.000002 0.000014 0.000006 45.399701 -7.170448 -2.702607 0.000001 -0.000000 3.003619 -5.000222 7.998932 -0.000140 -22.327514 -162.750567 -1.083505 -179.999991 0.000004 -0.908001 125.275860 9.619024 3.281196 0.000002 0.000003 4.194059 87.093491 4.912074 9.282196 25.760451 -7.348021 0.388824 -20.044013 163.940168 4.310027 -0.000009 -0.000004 -1.538749 -57.759467 -12.419388 -6.724537 -0.000003 0.000001 -6.745549 89.362739 -5.328281 -7.596346 26.833134 7.311629 -1.631414 
55.130001 -9.034595 83.199089 -4.890979 1.110682 2.046067 -0.308964 -0.681750 0.219795 3.387768 -1.362266 0.442645 5.033016 -1.356870 0.458934 -0.008263 -8.465328 -6.079198 11.078858 15.503923 -7.991674 -27.684324 -20.116524 -35.897012 -140.255162 -197.839667 -58.126856 0.000002 -0.000003 -0.000000 59.494008 5.876839 5.478545 -0.000003 0.000007 -3.000011 -5.000204 -7.999150 0.000127 -24.081005 19.626981 30.400066 -147.199415 194.779933 55.217408 -0.000005 0.000015 0.000003 45.700611 -7.002016 -2.800355 -0.000000 -0.000000 3.003597 -5.000221 7.998932 -0.000136 -22.482382 -162.767697 -1.122100 -179.999991 0.000004 -0.908999 124.963434 9.637542 3.323214 0.000002 0.000000 4.242357 87.212636 4.914045 9.301428 25.761469 -7.348042 0.390722 -20.293764 163.925688 4.381522 -0.000008 -0.000005 -1.540130 -58.154430 -12.446853 -6.790492 -0.000002 0.000001 -6.790140 89.412149 -5.323482 -7.633533 26.859751 7.310762 -1.661434 
